<?xml version="1.0" encoding="UTF-8" standalone="no"?>
<!-- Created with Inkscape (http://www.inkscape.org/) -->

<svg
   xmlns:dc="http://purl.org/dc/elements/1.1/"
   xmlns:cc="http://creativecommons.org/ns#"
   xmlns:rdf="http://www.w3.org/1999/02/22-rdf-syntax-ns#"
   xmlns:svg="http://www.w3.org/2000/svg"
   xmlns="http://www.w3.org/2000/svg"
   xmlns:sodipodi="http://sodipodi.sourceforge.net/DTD/sodipodi-0.dtd"
   xmlns:inkscape="http://www.inkscape.org/namespaces/inkscape"
   version="1.1"
   id="svg2"
   width="200"
   height="174"
   viewBox="0 0 200 174"
   sodipodi:docname="react.svg"
   inkscape:version="0.92.5 (2060ec1f9f, 2020-04-08)">
  <metadata
     id="metadata8">
    <rdf:RDF>
      <cc:Work
         rdf:about="">
        <dc:format>image/svg+xml</dc:format>
        <dc:type
           rdf:resource="http://purl.org/dc/dcmitype/StillImage" />
        <dc:title></dc:title>
      </cc:Work>
    </rdf:RDF>
  </metadata>
  <defs
     id="defs6" />
  <sodipodi:namedview
     pagecolor="#ffffff"
     bordercolor="#666666"
     borderopacity="1"
     objecttolerance="10"
     gridtolerance="10"
     guidetolerance="10"
     inkscape:pageopacity="0"
     inkscape:pageshadow="2"
     inkscape:window-width="1920"
     inkscape:window-height="996"
     id="namedview4"
     showgrid="false"
     inkscape:zoom="3.8362575"
     inkscape:cx="53.58528"
     inkscape:cy="88.486704"
     inkscape:window-x="0"
     inkscape:window-y="0"
     inkscape:window-maximized="1"
     inkscape:current-layer="svg2"
     inkscape:pagecheckerboard="false" />
  <path
     style="fill:#65d9f8"
     d="m 52.442405,171.91023 c -10.116912,-5.55721 -14.280869,-22.57617 -10.573382,-43.21562 0.740978,-4.125 0.995484,-7.88013 0.565569,-8.34474 -0.429914,-0.4646 -4.325269,-2.27354 -8.656343,-4.01985 C 18.715904,110.25681 9.3322464,103.12803 5.0263024,94.487119 1.8498527,88.112819 1.8117057,85.587979 4.795254,79.194609 c 4.0074654,-8.58751 13.127003,-15.50068 28.413825,-21.53941 5.09667,-2.01334 9.463307,-3.85724 9.703637,-4.09757 0.24033,-0.24033 -0.201473,-4.02033 -0.981786,-8.4 C 36.833266,16.54592 45.506204,-1.8171264 63.252243,0.01442663 70.690913,0.78216463 83.102035,6.9141396 92.729004,14.578038 l 7.786606,6.198804 8.12831,-6.503452 c 4.47057,-3.576898 11.5416,-8.2054464 15.7134,-10.2856624 6.74421,-3.36291797 8.41653,-3.78281597 15.08509,-3.78766697 6.33869,-0.0046 7.98857,0.361217 10.65533,2.36260997 8.05806,6.04755 11.53689,19.6243984 9.44939,36.8781574 -0.71559,5.914581 -1.36939,11.628891 -1.4529,12.698471 -0.12006,1.53785 1.31267,2.49028 6.84818,4.55246 16.72334,6.23006 27.64554,14.26455 31.46681,23.14734 2.65365,6.16856 2.31155,9.99844 -1.4694,16.45013 -4.4358,7.569131 -14.49577,14.186001 -33.85367,22.266981 -2.60453,1.08727 -2.80354,1.52046 -2.25817,4.91538 0.32895,2.04766 0.88639,8.95851 1.23877,15.35744 0.56368,10.23613 0.37941,12.49457 -1.53317,18.79134 -6.25111,20.5804 -23.78692,21.47139 -48.68566,2.47371 -4.613,-3.51971 -8.76108,-6.39947 -9.21796,-6.39947 -0.45688,0 -3.948492,2.50278 -7.759127,5.56174 -14.925257,11.98114 -31.951485,17.31026 -40.428428,12.65388 z m 91.389335,-7.60493 c 4.27583,-1.78656 7.19805,-7.83471 8.08318,-16.72988 0.7441,-7.47782 -0.9948,-22.78127 -2.78883,-24.54353 -0.8998,-0.88386 -2.98238,-0.84077 -8.68368,0.17971 -4.125,0.73833 -9.66964,1.63144 -12.32142,1.9847 -2.65785,0.35406 -5.42264,1.39527 -6.16121,2.32029 -11.63285,14.56955 -14.51737,18.37385 -14.51737,19.14645 0,1.38464 13.79631,11.89466 19.22496,14.64557 3.97496,2.01426 9.50514,3.82935 13.05716,4.28555 0.43016,0.0553 2.27841,-0.52474 4.10721,-1.28886 z m -69.861123,-3.03267 c 8.24762,-4.0482 10.936689,-5.83643 16.456467,-10.94352 l 4.128628,-3.81995 -2.579197,-3.15727 c -1.418559,-1.73651 -5.044672,-6.34816 -8.05803,-10.24813 l -5.478833,-7.09085 -13.038403,-1.78604 c -7.171121,-0.98232 -13.242324,-1.58211 -13.491561,-1.33288 -1.188428,1.18843 -2.556981,12.27355 -2.576258,20.86739 -0.02354,10.49378 1.764781,16.87831 5.450817,19.46011 3.75997,2.63359 11.439548,1.85353 19.18637,-1.94886 z m 36.460763,-33.32802 c 0.008,-0.9174 -2.64975,-1.25 -9.98897,-1.25 -5.500005,0 -10.000005,0.34575 -10.000005,0.76833 0,0.91283 7.719654,10.39562 9.359912,11.49767 1.243473,0.83546 10.610143,-8.8722 10.629063,-11.016 z m 13.47052,-19.27174 c 3.06934,-4.96195 7.01675,-11.934071 8.77203,-15.493581 l 3.19141,-6.47185 -2.80994,-5.75642 c -3.51644,-7.20372 -12.23276,-21.73333 -14.24497,-23.74554 -2.22459,-2.22459 -34.51145,-2.22459 -36.736045,0 -2.012206,2.01221 -10.72853,16.54182 -14.244966,23.74554 l -2.809946,5.75642 3.191411,6.47185 c 1.755276,3.55951 5.702689,10.531631 8.772029,15.493581 l 5.580617,9.02174 h 17.87888 17.87888 z m -30.957266,-6.4967 c -4.299131,-2.323321 -6.136903,-4.191921 -8.014763,-8.149221 -7.899475,-16.64691 12.4383,-32.52158 26.502989,-20.68693 8.55901,7.20194 8.20706,20.28847 -0.72895,27.104301 -4.38357,3.34351 -13.188212,4.20212 -17.759276,1.73185 z m -22.888235,11.95491 c -1.303801,-3.39765 -8.752663,-15.436471 -9.551115,-15.436471 -0.927093,0 -1.36774,0.93598 -4.090903,8.689521 -2.394474,6.81769 -1.171871,7.8287 9.885013,8.1743 3.571952,0.11164 4.248884,-0.14554 3.757005,-1.42735 z m 71.440761,0.45837 c 4.84753,-1.03961 5.12172,-1.26204 4.62264,-3.75 -0.83989,-4.18698 -4.5078,-12.144841 -5.59774,-12.144841 -0.90456,0 -8.27242,11.732831 -9.69364,15.436471 -0.74007,1.92858 3.0534,2.09157 10.66874,0.45837 z m -93.97645,-7.64484 c 0.678375,-2.0625 2.732045,-7.472281 4.56371,-12.021731 l 3.3303,-8.27174 -3.365004,-8.22826 c -1.850753,-4.52555 -3.904422,-9.91577 -4.56371,-11.97827 -1.474488,-4.61276 -2.267198,-4.64203 -12.543601,-0.46325 -13.729215,5.58282 -23.500001,13.81428 -23.500001,19.7977 0,7.81364 9.090439,16.061921 24.84249,22.541041 8.126751,3.34268 9.749297,3.14405 11.235816,-1.37549 z m 116.51827,1.24987 c 11.63424,-4.37911 21.1695,-11.127341 24.28124,-17.184131 3.81088,-7.41762 -1.84574,-14.74357 -17.29564,-22.39979 -10.71834,-5.31148 -15.25749,-6.37928 -16.64652,-3.91595 -0.4652,0.825 -2.62978,6.06959 -4.81017,11.65465 l -3.96435,10.15465 3.96477,9.84535 c 2.18062,5.414941 4.38472,10.857851 4.89799,12.095351 1.16526,2.80942 1.46503,2.80158 9.57268,-0.25013 z M 66.20017,66.349229 c 2.462929,-4.26368 4.185991,-8.0442 3.829027,-8.40117 -0.805146,-0.80514 -13.555635,1.30905 -14.652833,2.42963 -0.664177,0.67833 0.487509,4.92303 3.567924,13.15007 0.915361,2.44471 2.73943,0.64008 7.255882,-7.17853 z m 77.92634,1.46543 c 1.28891,-3.44653 2.10823,-6.64706 1.82069,-7.1123 -0.61097,-0.98857 -9.44629,-3.00775 -13.161,-3.00775 -3.06049,0 -2.95462,0.39292 2.72687,10.12097 2.24656,3.84666 4.57635,6.83002 5.17731,6.6297 0.60096,-0.20032 2.14722,-3.1841 3.43613,-6.63062 z M 67.764197,49.142629 c 8.975411,-1.30319 10.414555,-1.7918 12.178208,-4.13471 1.1,-1.46128 4.5875,-5.784701 7.75,-9.607592 3.1625,-3.822892 5.75,-7.55935 5.75,-8.303239 0,-1.932355 -11.377573,-10.724461 -18.792656,-14.522168 -7.588415,-3.8864804 -15.901508,-4.9659524 -19.596826,-2.544687 -4.522946,2.963548 -5.93707,9.129492 -5.368237,23.406884 0.609428,15.296292 1.645966,18.753332 5.344543,17.825052 1.406218,-0.35294 7.136954,-1.30673 12.734968,-2.11954 z m 81.822753,-0.19802 c 0.60228,-1.5125 1.32434,-8.196169 1.60458,-14.852593 0.58343,-13.857558 -1.0623,-21.246061 -5.35955,-24.061725 -3.82506,-2.5062794 -10.89495,-1.8537434 -18.04325,1.665354 -7.11746,3.503912 -20.34632,13.494548 -20.34632,15.365845 0,0.688959 2.01509,3.613385 4.47797,6.498726 2.46288,2.885341 5.90118,7.227865 7.64066,9.650053 2.7464,3.82429 3.76942,4.48534 7.77204,5.02212 2.53513,0.33998 7.75933,1.20443 11.60933,1.921 9.7348,1.81185 9.42786,1.84671 10.64454,-1.20878 z m -39.14454,-3.11538 c 0,-1.73349 -8.39803,-11.134625 -9.94655,-11.134625 -1.412653,0 -9.024547,8.484185 -9.886788,11.019775 -0.203196,0.59753 3.603327,0.98023 9.750008,0.98023 5.54583,0 10.08333,-0.38942 10.08333,-0.86538 z"
     id="path206"
     inkscape:connector-curvature="0" />
</svg>
